# xmcd CD database file generated by OrangeCD 5.2
#
# Track frame offsets:
#	150
#	14795
#	28391
#	46599
#	61600
#	79580
#	99087
#	119241
#	129955
#	146763
#	164464
#
# Disc length: 2384 seconds
#
# Revision: 0
# Processed by: cddbd v1.5.1PL0 Copyright (c) Steve Scherf et al.
# Submitted via: OrangeCD 5.2
#
DISCID=8f094e0b
DTITLE=Paul Hicks - Kettle Of Fish
DYEAR=2005
DGENRE=Country
TTITLE0=A Little Better Than That
TTITLE1=Just Cause I Was Fallin' In Love
TTITLE2=The Time I Get To You
TTITLE3=The Only One
TTITLE4=Kettle Of Fish
TTITLE5=Broken Child
TTITLE6=Before You Say Goodbye
TTITLE7=Comin' Home
TTITLE8=If It Sounds Good (It's Alright)
TTITLE9=Almost Gone
TTITLE10=Thinking Of You
EXTD=
EXTT0=
EXTT1=
EXTT2=
EXTT3=
EXTT4=
EXTT5=
EXTT6=
EXTT7=
EXTT8=
EXTT9=
EXTT10=
PLAYORDER=
